<?xml version="1.0" standalone="no"?>
<!DOCTYPE svg PUBLIC "-//W3C//DTD SVG 20010904//EN" "http://www.w3.org/TR/2001/REC-SVG-20010904/DTD/svg10.dtd">
<svg xmlns="http://www.w3.org/2000/svg" version="1.0" width="1024.000000pt" height="1024.000000pt" viewBox="0 0 1024.000000 1024.000000" preserveAspectRatio="xMidYMid meet">
<metadata>
Created by potrace 1.16, written by Peter Selinger 2001-2019
<meta name="Producer" content="Online-Convert"/></metadata>
<g transform="translate(0.000000,1024.000000) scale(0.100000,-0.100000)" fill="#000000" stroke="none">
<path d="M4870 9104 c-25 -2 -108 -9 -185 -15 -490 -39 -1063 -197 -1531 -423 -640 -310 -1182 -766 -1599 -1346 -323 -449 -564 -1015 -654 -1532 -43 -246 -55 -394 -55 -668 0 -509 75 -907 259 -1380 251 -646 701 -1248 1255 -1680 660 -514 1398 -816 2240 -916 183 -21 666 -30 857 -15 714 57 1386 271 1986 633 882 532 1553 1401 1813 2348 44 158 88 376 111 550 25 190 25 728 0 910 -63 452 -188 857 -383 1240 -323 636 -790 1157 -1404 1567 -568 379 -1272 629 -1991 708 -135 15 -618 28 -719 19z m640 -313 c622 -66 1117 -205 1674 -470 483 -229 751 -444 1063 -851 469 -613 717 -1107 822 -1635 57 -283 65 -375 65 -685 0 -260 -3 -301 -28 -465 -48 -321 -121 -618 -202 -823 -181 -460 -457 -879 -839 -1271 -278 -285 -574 -504 -930 -687 -484 -250 -960 -389 -1588 -466 -242 -29 -735 -32 -982 -4 -822 91 -1485 343 -2019 769 -264 211 -634 634 -874 1000 -290 441 -500 1002 -564 1507 -20 160 -17 632 5 790 114 815 397 1418 971 2068 385 436 773 723 1237 916 428 177 910 292 1366 326 185 13 612 4 823 -19z"/>
<path d="M5072 6469 c-337 -26 -786 -176 -1057 -355 l-60 -39 212 -3 211 -2 109 44 c330 135 811 189 1153 130 248 -43 511 -151 710 -293 81 -57 212 -180 204 -192 -3 -5 -22 -9 -43 -9 -61 0 -1137 -157 -1159 -169 -7 -4 312 -11 710 -15 802 -7 1309 -20 1468 -36 428 -44 765 -144 1037 -308 56 -34 106 -62 110 -62 12 0 -97 108 -172 170 -273 225 -622 362 -992 390 -211 16 -473 30 -550 30 l-72 0 -123 123 c-202 201 -422 351 -659 452 -189 80 -406 126 -684 145 -166 11 -203 11 -353 -1z"/>
<path d="M1715 5696 c-37 -88 -63 -165 -58 -170 4 -3 113 -6 244 -6 179 0 240 3 246 13 12 19 83 180 83 189 0 4 -113 8 -251 8 l-250 0 -14 -34z"/>
<path d="M2506 5722 c-10 -17 -66 -176 -66 -189 0 -11 97 -13 510 -13 409 0 512 -3 516 -13 2 -7 -11 -47 -31 -89 -78 -169 -111 -368 -103 -620 3 -87 5 -159 4 -160 0 -1 -156 -5 -345 -8 l-345 -5 -23 -90 c-12 -49 -23 -96 -23 -102 0 -10 110 -13 515 -13 283 0 515 3 515 6 0 4 -13 45 -30 93 -108 314 -83 602 76 883 65 115 116 182 204 265 l65 63 -717 0 c-394 0 -719 -4 -722 -8z"/>
<path d="M3900 5324 c-30 -8 -80 -27 -110 -42 l-55 -26 120 -6 c198 -11 285 -47 411 -174 93 -94 143 -186 168 -308 20 -97 20 -149 0 -246 -37 -184 -145 -336 -318 -447 -32 -20 -56 -39 -53 -41 7 -8 125 25 191 53 138 58 244 147 306 257 l32 56 651 1 c359 1 668 2 687 3 93 5 105 7 90 15 -8 5 -42 12 -75 16 -33 3 -114 15 -180 25 -66 11 -280 40 -475 65 -405 52 -565 73 -597 80 -22 5 -23 10 -23 94 0 299 -193 554 -475 626 -74 19 -223 18 -295 -1z"/>
<path d="M6981 5255 c-126 -28 -276 -116 -364 -214 -20 -23 -37 -45 -37 -50 0 -5 38 10 84 33 101 52 185 70 321 69 267 -2 454 -129 543 -372 32 -89 41 -239 18 -333 -43 -185 -177 -348 -369 -450 -75 -40 -57 -47 52 -19 288 72 455 217 542 468 29 85 41 216 28 310 -33 242 -212 461 -441 540 -93 32 -277 41 -377 18z"/>
<path d="M2040 5160 c-23 -43 -80 -183 -76 -187 5 -5 40 -7 116 -5 l66 2 46 99 c25 55 43 102 40 105 -3 3 -45 6 -93 6 -78 0 -90 -2 -99 -20z"/>
<path d="M2500 5161 c-15 -29 -69 -185 -65 -189 5 -5 628 -2 633 3 9 8 59 195 54 200 -3 3 -142 5 -308 5 -290 0 -304 -1 -314 -19z"/>
</g>
</svg>
